<svg width="381" height="335" viewBox="0 0 381 335" fill="none" xmlns="http://www.w3.org/2000/svg">
<path d="M238.07 116.72H271.222L273.719 222.38H240.429L242.8 154.948L242.856 153.344L241.898 154.632L191.821 221.986L150.808 154.67L150.048 153.423L149.884 154.874L142.233 222.38H109.254L127.192 116.73H157.79C158.713 116.73 159.584 117.16 160.148 117.884L160.258 118.033L196.093 172.207L196.494 172.813L196.917 172.221L235.647 117.971C236.204 117.192 237.113 116.72 238.07 116.72Z" fill="#FCB119" stroke="#B4B4B4"/>
<path d="M195.29 60.98C224.127 60.9801 248.813 78.914 259.08 104.35H237.29C231.209 104.35 225.468 107.298 221.924 112.239L221.923 112.24L196.215 148.247L172.757 112.774L172.756 112.773L172.695 112.683L172.636 112.592L172.633 112.588C169.109 107.411 163.265 104.33 157.01 104.33H156.51V104.35H131.5C141.768 78.9044 166.453 60.98 195.29 60.98Z" fill="white" stroke="#D48E00"/>
<path d="M88.25 68.02L119.14 86.75" stroke="white" stroke-width="14" stroke-miterlimit="10" stroke-linecap="round" stroke-linejoin="round"/>
<path d="M133.28 24.02L150.96 54.34" stroke="white" stroke-width="14" stroke-miterlimit="10" stroke-linecap="round" stroke-linejoin="round"/>
<path d="M195.56 7L195.31 42.43" stroke="white" stroke-width="14" stroke-miterlimit="10" stroke-linecap="round" stroke-linejoin="round"/>
<path d="M256.02 23.8999L239.04 54.1099" stroke="white" stroke-width="14" stroke-miterlimit="10" stroke-linecap="round" stroke-linejoin="round"/>
<path d="M270.9 86.7099L301.07 68.1099" stroke="white" stroke-width="14" stroke-miterlimit="10" stroke-linecap="round" stroke-linejoin="round"/>
<path d="M15.9844 260.44L22.9922 278.927L23.4463 280.125L23.9238 278.936L31.3477 260.44H39.7188L44.8496 294.67H36.7305L34.1963 274.817L33.96 272.967L33.2393 274.687L24.8574 294.67H21.8887L13.8838 274.694L13.1963 272.978L12.9258 274.806L9.97852 294.67H1.92188L7.72266 260.44H15.9844Z" fill="#FCB119" stroke="#B4B4B4"/>
<path d="M78.3008 259.65C83.4214 259.65 88.361 261.413 91.8447 264.742L91.8467 264.744C95.4849 268.178 97.2402 273.001 97.2402 277.59C97.2401 282.106 95.4875 286.881 91.8447 290.378C88.361 293.707 83.4214 295.47 78.3008 295.47C73.3401 295.47 68.5488 293.815 65.0869 290.686L64.7559 290.378C61.1135 286.891 59.3605 282.116 59.3604 277.59C59.3604 273.011 61.1157 268.178 64.7539 264.744L64.7559 264.742C68.2397 261.413 73.18 259.65 78.3008 259.65ZM78.3008 267.52C75.6545 267.52 72.8306 268.455 70.8213 270.461C68.8105 272.419 67.8702 275.146 67.8701 277.74C67.8701 281.032 69.4356 283.315 70.8232 284.65C72.6016 286.375 75.1048 287.59 78.3008 287.59C81.551 287.59 83.9991 286.429 85.7344 284.694C87.4559 282.972 88.7305 280.419 88.7305 277.58C88.7304 274.684 87.4579 272.127 85.7275 270.459L85.7236 270.457L85.3291 270.103C83.3141 268.393 80.6904 267.52 78.3008 267.52Z" fill="#FCB119" stroke="#B4B4B4"/>
<path d="M125.124 260.44L132.132 278.927L132.586 280.125L133.063 278.936L140.487 260.44H148.858L153.989 294.67H145.87L143.336 274.817L143.1 272.966L142.379 274.687L134.008 294.67H131.038L123.023 274.694L122.336 272.98L122.065 274.806L119.118 294.67H111.062L116.862 260.44H125.124Z" fill="#FCB119" stroke="#B4B4B4"/>
<path d="M189.1 260.44V267.21H178.22V274.07H188.521V280.84H178.22V287.91H189.1V294.68H170.08V260.44H189.1Z" fill="#FCB119" stroke="#B4B4B4"/>
<path d="M213.496 260.44L230.195 281.798L231.09 282.941V260.44H239.229V294.67H230.834L214.134 273.312L213.239 272.168V294.67H205.1V260.44H213.496Z" fill="#FCB119" stroke="#B4B4B4"/>
<path d="M276.63 260.44V267.21H269.13V294.68H260.99V267.21H253.49V260.44H276.63Z" fill="#FCB119" stroke="#B4B4B4"/>
<path d="M299.03 260.44V280.81C299.03 282.283 299.067 284.759 300.983 286.61L300.987 286.614C302.141 287.702 303.954 288.44 305.66 288.44C307.354 288.44 309.116 287.771 310.215 286.782L310.214 286.781C312.514 284.76 312.44 281.93 312.44 280.02V260.44H320.58V280.17C320.58 283.843 320.418 287.517 316.764 291.229C313.916 294.125 310.355 295.46 305.5 295.46C300.071 295.46 296.245 293.599 294.197 291.39H294.196C291.278 288.213 290.9 283.901 290.9 280.16V260.44H299.03Z" fill="#FCB119" stroke="#B4B4B4"/>
<path d="M350.734 260.44L357.742 278.927L358.196 280.125L358.674 278.936L366.098 260.44H374.469L379.6 294.67H371.48L368.946 274.817L368.71 272.966L367.989 274.687L359.618 294.67H356.648L348.634 274.694L347.946 272.98L347.676 274.806L344.729 294.67H336.672L342.473 260.44H350.734Z" fill="#FCB119" stroke="#B4B4B4"/>
<path d="M4.88965 314.27V330.45H11.3604V334.02H0.5V314.27H4.88965Z" fill="#FCB119" stroke="#B4B4B4"/>
<path d="M29.4102 313.8C32.3812 313.8 35.2407 314.823 37.2441 316.741L37.2471 316.744C39.3445 318.718 40.3604 321.51 40.3604 324.16C40.3603 326.695 39.4086 329.368 37.4385 331.357L37.2451 331.548C35.2309 333.467 32.3805 334.49 29.4102 334.49C26.6246 334.49 23.9368 333.59 21.9609 331.897L21.5762 331.549C19.4731 329.531 18.4601 326.776 18.46 324.16C18.46 321.511 19.4746 318.728 21.5732 316.743L21.5752 316.742C23.5894 314.823 26.4398 313.8 29.4102 313.8ZM29.4102 318.04C27.8125 318.03 26.0899 318.596 24.8613 319.821C23.6305 321.019 23.0596 322.676 23.0596 324.26C23.0596 326.146 23.8995 327.488 24.7031 328.32L24.8633 328.48C25.9494 329.523 27.4717 330.27 29.4102 330.27C31.3699 330.269 32.8679 329.569 33.9336 328.503C34.9745 327.462 35.7597 325.899 35.7598 324.17C35.7598 322.405 34.9874 320.847 33.9258 319.829L33.9238 319.827L33.6846 319.611C32.4614 318.57 30.8633 318.041 29.4121 318.04H29.4102Z" fill="#FCB119" stroke="#B4B4B4"/>
<path d="M59.9395 313.79C61.8052 313.79 63.7894 314.217 65.2812 315.118V315.117C66.652 315.965 67.8196 317.311 68.5527 318.692L64.3682 320.422C64.0276 319.731 63.5883 319.189 63.1572 318.794L62.9346 318.602C61.9354 317.771 60.8498 317.46 59.7295 317.46C58.3303 317.46 56.9001 317.973 55.8281 319.034L55.8262 319.036C54.4986 320.364 53.8799 322.436 53.8799 324.15C53.88 326.173 54.6155 327.846 55.6641 328.971V328.972C56.7532 330.138 58.1079 330.72 59.8193 330.72C60.8052 330.72 62.0309 330.55 63.1279 329.646L63.127 329.645C63.7103 329.176 64.3713 328.323 64.583 327.042L64.6787 326.46H60.1699V323.26H69.8525C69.7855 327.027 68.939 329.646 66.6904 331.723L66.6895 331.724C64.6302 333.632 62.2781 334.2 59.7197 334.2C56.1255 334.2 53.6939 332.885 52.1172 331.271L52.1143 331.268L51.8398 330.979C50.4775 329.485 49.2696 327.186 49.2695 324.12C49.2695 320.956 50.5246 318.383 52.2314 316.695L52.2334 316.693C53.8473 315.08 56.3989 313.79 59.9395 313.79Z" fill="#FCB119" stroke="#B4B4B4"/>
<path d="M84.0801 314.27V334.02H79.7002V314.27H84.0801Z" fill="#FCB119" stroke="#B4B4B4"/>
<path d="M101.479 313.79C103.288 313.79 105.406 314.324 107.215 315.191L105.562 318.419C104.077 317.392 102.925 317.271 102.189 317.271C101.606 317.271 100.729 317.399 100.073 318.029L100.066 318.036C99.7085 318.394 99.3897 318.854 99.3896 319.51C99.3896 319.947 99.4637 320.351 99.7764 320.749L99.7822 320.756L99.7871 320.762C100.026 321.046 100.491 321.458 101.825 321.848V321.849L103.474 322.348V322.349C104.781 322.748 106.032 323.188 107.022 324.26L107.026 324.264C107.973 325.263 108.229 326.275 108.229 327.62C108.229 329.434 107.784 331.118 106.416 332.496C104.786 334.126 102.8 334.47 100.64 334.47C99.3693 334.47 98.1909 334.354 96.7314 333.82L96.7266 333.818L96.3252 333.664C95.833 333.461 95.0074 333.077 94.0732 332.473L95.8652 329.094C97.0532 330.068 98.6946 330.92 100.479 330.92C101.664 330.92 102.456 330.55 102.923 330.053L102.924 330.054C103.324 329.653 103.6 329.057 103.6 328.39C103.6 327.856 103.385 327.246 102.841 326.766H102.842C102.51 326.471 102.108 326.275 101.648 326.104C101.421 326.019 101.167 325.936 100.888 325.85L99.9766 325.572L98.5801 325.133C97.7097 324.853 96.551 324.415 95.8105 323.595L95.8076 323.591L95.6436 323.399C94.8685 322.427 94.7598 321.232 94.7598 320.26C94.7598 317.857 95.6868 316.421 96.5117 315.605L96.5137 315.604C97.4759 314.641 99.0868 313.79 101.479 313.79Z" fill="#FCB119" stroke="#B4B4B4"/>
<path d="M129.3 314.28V317.851H124.88V334.03H120.5V317.851H116.08V314.28H129.3Z" fill="#FCB119" stroke="#B4B4B4"/>
<path d="M142.49 314.27V334.02H138.11V314.27H142.49Z" fill="#FCB119" stroke="#B4B4B4"/>
<path d="M162.811 313.93C163.704 313.93 165.147 314.066 167.16 314.833V319.69C165.511 318.256 163.785 318.161 162.96 318.161C161.283 318.161 159.981 318.672 158.894 319.661L158.892 319.663C157.49 320.955 156.93 322.719 156.93 324.291C156.93 325.839 157.564 327.568 158.769 328.695V328.696C159.767 329.627 161.321 330.26 162.97 330.26C163.724 330.26 165.419 330.181 167.17 328.745V333.605C165.255 334.282 164.191 334.49 163 334.49C159.746 334.49 157.27 333.284 155.636 331.82L155.32 331.524C153.398 329.6 152.33 326.898 152.33 324.32C152.33 321.499 153.553 318.823 155.326 317.021C157.079 315.239 159.714 313.93 162.811 313.93Z" fill="#FCB119" stroke="#B4B4B4"/>
<path d="M183.63 313.79C185.438 313.79 187.555 314.324 189.364 315.191L187.712 318.418C186.227 317.391 185.075 317.271 184.34 317.271C183.752 317.271 182.89 317.4 182.227 318.026L182.221 318.031L182.216 318.036C181.858 318.394 181.54 318.854 181.54 319.51C181.54 319.947 181.614 320.351 181.927 320.749V320.75C182.163 321.049 182.649 321.461 183.975 321.848V321.849L185.624 322.348V322.349C186.932 322.748 188.182 323.187 189.161 324.258L189.166 324.264C190.112 325.263 190.369 326.275 190.369 327.62C190.369 329.434 189.924 331.118 188.556 332.496C186.925 334.126 184.94 334.47 182.779 334.47C181.509 334.47 180.331 334.354 178.871 333.82L178.866 333.818L178.465 333.664C177.973 333.462 177.148 333.077 176.215 332.474L178.022 329.092C179.211 330.067 180.853 330.92 182.64 330.92C183.817 330.92 184.611 330.554 185.072 330.053L185.073 330.054C185.474 329.653 185.75 329.057 185.75 328.39C185.75 327.856 185.534 327.246 184.99 326.766H184.991C184.659 326.471 184.258 326.275 183.798 326.104C183.344 325.934 182.784 325.774 182.129 325.573H182.13L180.729 325.133C179.859 324.853 178.701 324.414 177.961 323.595L177.957 323.591C177.033 322.588 176.909 321.297 176.909 320.26C176.909 317.859 177.845 316.422 178.663 315.604C179.625 314.641 181.237 313.79 183.63 313.79Z" fill="#FCB119" stroke="#B4B4B4"/>
<path d="M219.489 313.79C221.298 313.79 223.416 314.324 225.225 315.191L223.572 318.419C222.087 317.392 220.935 317.271 220.199 317.271C219.615 317.271 218.739 317.399 218.083 318.029L218.076 318.036C217.718 318.394 217.4 318.854 217.399 319.51C217.399 319.947 217.473 320.351 217.786 320.749L217.792 320.756L217.797 320.762C218.036 321.045 218.501 321.458 219.835 321.848V321.849L221.483 322.348V322.349C222.791 322.748 224.042 323.188 225.032 324.26L225.036 324.264C225.982 325.263 226.239 326.275 226.239 327.62C226.239 329.434 225.794 331.118 224.426 332.496C222.795 334.126 220.81 334.47 218.649 334.47C217.379 334.47 216.201 334.354 214.741 333.82L214.736 333.818L214.335 333.664C213.843 333.461 213.017 333.077 212.083 332.473L213.875 329.094C215.063 330.068 216.704 330.92 218.489 330.92C219.674 330.92 220.465 330.55 220.933 330.053L220.934 330.054C221.334 329.653 221.609 329.057 221.609 328.39C221.609 327.856 221.395 327.246 220.851 326.766H220.852C220.519 326.471 220.118 326.275 219.658 326.104C219.431 326.019 219.177 325.936 218.897 325.85L217.986 325.572L216.59 325.133C215.719 324.853 214.561 324.415 213.82 323.595L213.817 323.591L213.653 323.399C212.878 322.427 212.77 321.232 212.77 320.26C212.77 317.857 213.697 316.421 214.521 315.605L214.523 315.604C215.486 314.641 217.097 313.79 219.489 313.79Z" fill="#FCB119" stroke="#B4B4B4"/>
<path d="M246.83 314.27V317.85H240.42V322.3H246.49V325.87H240.42V330.45H246.83V334.02H236.04V314.27H246.83Z" fill="#FCB119" stroke="#B4B4B4"/>
<path d="M264.57 314.27C266.08 314.27 267.904 314.517 269.279 315.947L269.282 315.949C270.353 317.047 270.91 318.722 270.91 320.27C270.91 321.928 270.329 323.349 269.413 324.24C268.688 324.938 267.694 325.363 266.803 325.54L266.015 325.696L266.503 326.333L272.388 334.02H266.982L261.97 326.288L261.05 324.87V334.02H256.67V314.27H264.57ZM261.07 323.08H261.56V323.58H262.59C263.036 323.58 263.572 323.52 264.091 323.374C264.605 323.229 265.14 322.989 265.545 322.602L265.554 322.593C266.063 322.084 266.39 321.274 266.39 320.5C266.39 319.767 266.1 318.935 265.521 318.395H265.521C264.888 317.772 263.84 317.45 262.6 317.45H261.07V323.08Z" fill="#FCB119" stroke="#B4B4B4"/>
<path d="M283.31 314.27L288.164 326.583L288.627 327.756L289.094 326.585L294.009 314.27H298.763L290.349 334.02H286.812L278.521 314.27H283.31Z" fill="#FCB119" stroke="#B4B4B4"/>
<path d="M312 314.27V334.02H307.62V314.27H312Z" fill="#FCB119" stroke="#B4B4B4"/>
<path d="M332.311 313.93C333.204 313.93 334.647 314.066 336.66 314.833V319.69C335.011 318.256 333.285 318.161 332.46 318.161C330.783 318.161 329.481 318.672 328.394 319.661L328.392 319.663C326.99 320.955 326.43 322.719 326.43 324.291C326.43 325.839 327.064 327.568 328.269 328.695V328.696C329.267 329.627 330.821 330.26 332.47 330.26C333.224 330.26 334.919 330.181 336.67 328.745V333.605C334.755 334.282 333.691 334.49 332.5 334.49C329.246 334.49 326.77 333.284 325.136 331.82L324.82 331.524C322.898 329.6 321.83 326.898 321.83 324.32C321.83 321.499 323.053 318.823 324.826 317.021C326.579 315.239 329.214 313.93 332.311 313.93Z" fill="#FCB119" stroke="#B4B4B4"/>
<path d="M357.3 314.27V317.85H350.89V322.3H356.96V325.87H350.89V330.45H357.3V334.02H346.51V314.27H357.3Z" fill="#FCB119" stroke="#B4B4B4"/>
<path d="M373.761 313.79C375.569 313.79 377.686 314.324 379.495 315.191L377.843 318.418C376.358 317.391 375.206 317.271 374.471 317.271C373.883 317.271 373.021 317.4 372.357 318.026L372.352 318.031L372.347 318.036C371.989 318.394 371.671 318.854 371.671 319.51C371.671 319.947 371.745 320.351 372.058 320.749V320.75C372.294 321.049 372.78 321.461 374.105 321.848V321.849L375.755 322.348V322.349C377.063 322.748 378.312 323.187 379.292 324.258L379.297 324.264C380.243 325.263 380.5 326.275 380.5 327.62C380.5 329.434 380.054 331.118 378.687 332.496C377.056 334.126 375.071 334.47 372.91 334.47C371.64 334.47 370.461 334.354 369.002 333.82L368.997 333.818L368.596 333.664C368.104 333.462 367.279 333.077 366.346 332.474L368.153 329.092C369.342 330.067 370.984 330.92 372.771 330.92C373.948 330.92 374.742 330.554 375.203 330.053L375.204 330.054C375.605 329.653 375.881 329.057 375.881 328.39C375.881 327.856 375.665 327.246 375.121 326.766H375.122C374.79 326.471 374.389 326.275 373.929 326.104C373.475 325.934 372.915 325.774 372.26 325.573H372.261L370.86 325.133C369.99 324.853 368.832 324.414 368.092 323.595L368.088 323.591C367.164 322.588 367.04 321.297 367.04 320.26C367.04 317.859 367.976 316.422 368.794 315.604C369.756 314.641 371.368 313.79 373.761 313.79Z" fill="#FCB119" stroke="#B4B4B4"/>
</svg>
