<svg width="381" height="335" viewBox="0 0 381 335" fill="none" xmlns="http://www.w3.org/2000/svg">
<path d="M108.66 222.89L126.77 116.23H157.79C158.94 116.23 160.02 116.8 160.67 117.75L196.51 171.93L235.24 117.68C235.89 116.77 236.95 116.22 238.07 116.22H271.71L274.23 222.88H239.91L242.3 154.93L191.78 222.88L150.38 154.93L142.68 222.88H108.66V222.89Z" fill="#0763B0"/>
<path d="M157.01 104.83C163.1 104.83 168.79 107.83 172.22 112.87L172.28 112.96L172.34 113.05L196.2 149.13L222.33 112.53C225.78 107.72 231.37 104.85 237.29 104.85H259.82C249.65 78.87 224.6 60.48 195.29 60.48C165.98 60.48 140.93 78.86 130.76 104.85H157.01V104.83Z" fill="#FCB119"/>
<path d="M88.25 68.02L119.14 86.75" stroke="#FCB119" stroke-width="14" stroke-miterlimit="10" stroke-linecap="round" stroke-linejoin="round"/>
<path d="M133.28 24.02L150.96 54.34" stroke="#FCB119" stroke-width="14" stroke-miterlimit="10" stroke-linecap="round" stroke-linejoin="round"/>
<path d="M195.56 7L195.31 42.43" stroke="#FCB119" stroke-width="14" stroke-miterlimit="10" stroke-linecap="round" stroke-linejoin="round"/>
<path d="M256.02 23.8999L239.04 54.1099" stroke="#FCB119" stroke-width="14" stroke-miterlimit="10" stroke-linecap="round" stroke-linejoin="round"/>
<path d="M270.9 86.7099L301.07 68.1099" stroke="#FCB119" stroke-width="14" stroke-miterlimit="10" stroke-linecap="round" stroke-linejoin="round"/>
<path d="M1.33008 295.17L7.30008 259.94H16.3301L23.4601 278.75L31.0101 259.94H40.1501L45.4301 295.17H36.2901L33.7001 274.88L25.1901 295.17H21.5501L13.4201 274.88L10.4101 295.17H1.33008Z" fill="#0763B0"/>
<path d="M92.1898 290.74C88.5998 294.17 83.5299 295.97 78.2999 295.97C73.0699 295.97 67.9999 294.17 64.4099 290.74C60.6599 287.15 58.8599 282.24 58.8599 277.59C58.8599 272.89 60.6599 267.92 64.4099 264.38C67.9999 260.95 73.0699 259.15 78.2999 259.15C83.5299 259.15 88.5998 260.95 92.1898 264.38C95.9398 267.92 97.7399 272.88 97.7399 277.59C97.7399 282.23 95.9398 287.14 92.1898 290.74ZM71.1699 270.82C69.2699 272.67 68.3699 275.26 68.3699 277.74C68.3699 280.86 69.8499 283.02 71.1699 284.29C72.8599 285.93 75.2399 287.09 78.2999 287.09C81.4199 287.09 83.7399 285.98 85.3799 284.34C87.0199 282.7 88.2299 280.27 88.2299 277.58C88.2299 274.83 87.0199 272.4 85.3799 270.82C83.4199 268.97 80.7299 268.02 78.2999 268.02C75.7599 268.02 73.0699 268.92 71.1699 270.82Z" fill="#0763B0"/>
<path d="M110.47 295.17L116.44 259.94H125.47L132.6 278.75L140.15 259.94H149.29L154.57 295.17H145.43L142.84 274.88L134.34 295.17H130.7L122.56 274.88L119.55 295.17H110.47Z" fill="#0763B0"/>
<path d="M189.6 267.71H178.72V273.57H189.02V281.34H178.72V287.41H189.6V295.18H169.58V259.94H189.6V267.71Z" fill="#0763B0"/>
<path d="M204.6 295.17V259.94H213.74L230.59 281.49V259.94H239.73V295.17H230.59L213.74 273.62V295.17H204.6Z" fill="#0763B0"/>
<path d="M269.63 267.71V295.18H260.49V267.71H252.99V259.94H277.13V267.71H269.63Z" fill="#0763B0"/>
<path d="M299.53 259.94V280.81C299.53 282.29 299.58 284.56 301.33 286.25C302.39 287.25 304.08 287.94 305.66 287.94C307.24 287.94 308.88 287.31 309.88 286.41C311.99 284.56 311.94 281.97 311.94 280.02V259.94H321.08V280.17C321.08 283.87 320.92 287.72 317.12 291.58C314.16 294.59 310.46 295.96 305.5 295.96C299.96 295.96 295.99 294.06 293.83 291.73C290.77 288.4 290.4 283.91 290.4 280.16V259.94H299.53Z" fill="#0763B0"/>
<path d="M336.08 295.17L342.05 259.94H351.08L358.21 278.75L365.76 259.94H374.9L380.18 295.17H371.04L368.45 274.88L359.95 295.17H356.31L348.17 274.88L345.16 295.17H336.08Z" fill="#0763B0"/>
<path d="M5.39 313.77V329.95H11.86V334.52H0V313.77H5.39Z" fill="#0763B0"/>
<path d="M37.59 331.91C35.47 333.93 32.49 334.99 29.41 334.99C26.33 334.99 23.34 333.93 21.23 331.91C19.02 329.79 17.96 326.9 17.96 324.16C17.96 321.39 19.02 318.47 21.23 316.38C23.35 314.36 26.33 313.3 29.41 313.3C32.49 313.3 35.48 314.36 37.59 316.38C39.8 318.46 40.86 321.39 40.86 324.16C40.86 326.9 39.8 329.8 37.59 331.91ZM25.21 320.18C24.09 321.27 23.56 322.79 23.56 324.26C23.56 326.1 24.43 327.37 25.21 328.12C26.21 329.08 27.61 329.77 29.41 329.77C31.24 329.77 32.61 329.12 33.58 328.15C34.54 327.19 35.26 325.75 35.26 324.17C35.26 322.55 34.55 321.12 33.58 320.19C32.43 319.1 30.84 318.54 29.41 318.54C27.92 318.53 26.33 319.06 25.21 320.18Z" fill="#0763B0"/>
<path d="M59.66 322.76H70.36C70.36 326.87 69.52 329.79 67.03 332.09C64.85 334.11 62.36 334.7 59.72 334.7C55.99 334.7 53.43 333.33 51.76 331.62C50.21 330.06 48.77 327.54 48.77 324.12C48.77 320.82 50.08 318.12 51.88 316.34C53.59 314.63 56.27 313.29 59.94 313.29C61.87 313.29 63.95 313.73 65.54 314.69C67.16 315.69 68.5 317.33 69.24 318.95L64.11 321.07C63.74 320.11 63.15 319.42 62.62 318.99C61.72 318.24 60.75 317.96 59.73 317.96C58.45 317.96 57.15 318.43 56.18 319.39C54.97 320.6 54.38 322.53 54.38 324.15C54.38 326.05 55.07 327.6 56.03 328.63C57.02 329.69 58.24 330.22 59.82 330.22C60.75 330.22 61.84 330.06 62.81 329.26C63.31 328.86 63.9 328.11 64.09 326.96H59.67V322.76H59.66Z" fill="#0763B0"/>
<path d="M84.5802 313.77V334.52H79.2002V313.77H84.5802Z" fill="#0763B0"/>
<path d="M95.7199 328.3C96.8699 329.39 98.6099 330.42 100.48 330.42C101.57 330.42 102.22 330.08 102.57 329.7C102.88 329.39 103.1 328.92 103.1 328.39C103.1 327.99 102.94 327.52 102.51 327.14C101.98 326.67 101.17 326.46 99.8299 326.05L98.4299 325.61C97.5599 325.33 96.2799 324.86 95.4399 323.93C94.3799 322.78 94.2599 321.32 94.2599 320.26C94.2599 317.71 95.2499 316.15 96.1599 315.25C97.2199 314.19 98.9599 313.29 101.48 313.29C103.53 313.29 105.93 313.94 107.89 314.97L105.74 319.17C104.12 317.89 102.91 317.77 102.19 317.77C101.66 317.77 100.94 317.89 100.42 318.39C100.11 318.7 99.8899 319.04 99.8899 319.51C99.8899 319.88 99.9499 320.16 100.17 320.44C100.33 320.63 100.7 321 101.97 321.37L103.62 321.87C104.93 322.27 106.3 322.74 107.39 323.92C108.45 325.04 108.73 326.19 108.73 327.62C108.73 329.52 108.26 331.35 106.77 332.85C105 334.62 102.85 334.97 100.64 334.97C99.3299 334.97 98.0899 334.85 96.5599 334.29C96.2199 334.17 94.9099 333.67 93.4199 332.64L95.7199 328.3Z" fill="#0763B0"/>
<path d="M125.38 318.35V334.53H120V318.35H115.58V313.78H129.8V318.35H125.38Z" fill="#0763B0"/>
<path d="M142.99 313.77V334.52H137.61V313.77H142.99Z" fill="#0763B0"/>
<path d="M167.67 333.96C165.52 334.74 164.34 334.99 163 334.99C159.39 334.99 156.68 333.56 154.97 331.88C152.95 329.86 151.83 327.03 151.83 324.32C151.83 321.36 153.11 318.56 154.97 316.67C156.81 314.8 159.57 313.43 162.81 313.43C163.81 313.43 165.42 313.59 167.66 314.49V320.93C165.92 318.78 163.87 318.66 162.96 318.66C161.4 318.66 160.22 319.13 159.23 320.03C157.95 321.21 157.43 322.83 157.43 324.29C157.43 325.72 158.02 327.31 159.11 328.33C160.01 329.17 161.44 329.76 162.97 329.76C163.78 329.76 165.77 329.67 167.67 327.58V333.96Z" fill="#0763B0"/>
<path d="M177.88 328.3C179.03 329.39 180.77 330.42 182.64 330.42C183.73 330.42 184.38 330.08 184.72 329.7C185.03 329.39 185.25 328.92 185.25 328.39C185.25 327.99 185.09 327.52 184.66 327.14C184.13 326.67 183.32 326.46 181.98 326.05L180.58 325.61C179.71 325.33 178.43 324.86 177.59 323.93C176.53 322.78 176.41 321.32 176.41 320.26C176.41 317.71 177.41 316.15 178.31 315.25C179.37 314.19 181.11 313.29 183.63 313.29C185.68 313.29 188.08 313.94 190.04 314.97L187.89 319.17C186.27 317.89 185.06 317.77 184.34 317.77C183.81 317.77 183.1 317.89 182.57 318.39C182.26 318.7 182.04 319.04 182.04 319.51C182.04 319.88 182.1 320.16 182.32 320.44C182.47 320.63 182.85 321 184.12 321.37L185.77 321.87C187.08 322.27 188.45 322.74 189.53 323.92C190.59 325.04 190.87 326.19 190.87 327.62C190.87 329.52 190.4 331.35 188.91 332.85C187.14 334.62 184.99 334.97 182.78 334.97C181.47 334.97 180.23 334.85 178.7 334.29C178.36 334.17 177.05 333.67 175.56 332.64L177.88 328.3Z" fill="#0763B0"/>
<path d="M213.73 328.3C214.88 329.39 216.62 330.42 218.49 330.42C219.58 330.42 220.23 330.08 220.58 329.7C220.89 329.39 221.11 328.92 221.11 328.39C221.11 327.99 220.95 327.52 220.52 327.14C219.99 326.67 219.18 326.46 217.84 326.05L216.44 325.61C215.57 325.33 214.29 324.86 213.45 323.93C212.39 322.78 212.27 321.32 212.27 320.26C212.27 317.71 213.26 316.15 214.17 315.25C215.23 314.19 216.97 313.29 219.49 313.29C221.54 313.29 223.94 313.94 225.9 314.97L223.75 319.17C222.13 317.89 220.92 317.77 220.2 317.77C219.67 317.77 218.95 317.89 218.43 318.39C218.12 318.7 217.9 319.04 217.9 319.51C217.9 319.88 217.96 320.16 218.18 320.44C218.34 320.63 218.71 321 219.98 321.37L221.63 321.87C222.94 322.27 224.31 322.74 225.4 323.92C226.46 325.04 226.74 326.19 226.74 327.62C226.74 329.52 226.27 331.35 224.78 332.85C223.01 334.62 220.86 334.97 218.65 334.97C217.34 334.97 216.1 334.85 214.57 334.29C214.23 334.17 212.92 333.67 211.43 332.64L213.73 328.3Z" fill="#0763B0"/>
<path d="M247.33 318.35H240.92V321.8H246.99V326.37H240.92V329.95H247.33V334.52H235.54V313.77H247.33V318.35Z" fill="#0763B0"/>
<path d="M264.57 313.77C266.12 313.77 268.12 314.02 269.64 315.6C270.82 316.81 271.41 318.62 271.41 320.27C271.41 322.04 270.79 323.6 269.76 324.6C268.95 325.38 267.86 325.84 266.9 326.03L273.4 334.52H266.71L261.55 326.56V334.52H256.17V313.77H264.57ZM261.56 323.08H262.59C263.4 323.08 264.55 322.86 265.2 322.24C265.61 321.83 265.89 321.15 265.89 320.5C265.89 319.88 265.64 319.19 265.18 318.76C264.68 318.26 263.78 317.95 262.6 317.95H261.57V323.08H261.56Z" fill="#0763B0"/>
<path d="M283.65 313.77L288.63 326.4L293.67 313.77H299.52L290.68 334.52H286.48L277.77 313.77H283.65Z" fill="#0763B0"/>
<path d="M312.5 313.77V334.52H307.12V313.77H312.5Z" fill="#0763B0"/>
<path d="M337.17 333.96C335.02 334.74 333.84 334.99 332.5 334.99C328.89 334.99 326.18 333.56 324.47 331.88C322.45 329.86 321.33 327.03 321.33 324.32C321.33 321.36 322.61 318.56 324.47 316.67C326.31 314.8 329.07 313.43 332.31 313.43C333.31 313.43 334.92 313.59 337.16 314.49V320.93C335.42 318.78 333.37 318.66 332.46 318.66C330.9 318.66 329.72 319.13 328.73 320.03C327.45 321.21 326.93 322.83 326.93 324.29C326.93 325.72 327.52 327.31 328.61 328.33C329.51 329.17 330.94 329.76 332.47 329.76C333.28 329.76 335.27 329.67 337.17 327.58V333.96Z" fill="#0763B0"/>
<path d="M357.8 318.35H351.39V321.8H357.46V326.37H351.39V329.95H357.8V334.52H346.01V313.77H357.8V318.35Z" fill="#0763B0"/>
<path d="M368.01 328.3C369.16 329.39 370.9 330.42 372.77 330.42C373.86 330.42 374.51 330.08 374.85 329.7C375.16 329.39 375.38 328.92 375.38 328.39C375.38 327.99 375.22 327.52 374.79 327.14C374.26 326.67 373.45 326.46 372.11 326.05L370.71 325.61C369.84 325.33 368.56 324.86 367.72 323.93C366.66 322.78 366.54 321.32 366.54 320.26C366.54 317.71 367.54 316.15 368.44 315.25C369.5 314.19 371.24 313.29 373.76 313.29C375.81 313.29 378.21 313.94 380.17 314.97L378.02 319.17C376.4 317.89 375.19 317.77 374.47 317.77C373.94 317.77 373.23 317.89 372.7 318.39C372.39 318.7 372.17 319.04 372.17 319.51C372.17 319.88 372.23 320.16 372.45 320.44C372.6 320.63 372.98 321 374.25 321.37L375.9 321.87C377.21 322.27 378.58 322.74 379.66 323.92C380.72 325.04 381 326.19 381 327.62C381 329.52 380.53 331.35 379.04 332.85C377.27 334.62 375.12 334.97 372.91 334.97C371.6 334.97 370.36 334.85 368.83 334.29C368.49 334.17 367.18 333.67 365.69 332.64L368.01 328.3Z" fill="#0763B0"/>
</svg>
