<svg width="227" height="223" viewBox="0 0 227 223" fill="none" xmlns="http://www.w3.org/2000/svg">
<path d="M156.821 116.72H189.973L192.47 222.38H159.18L161.551 154.948L161.607 153.344L160.649 154.632L110.572 221.986L69.5586 154.67L68.7988 153.423L68.6348 154.874L60.9844 222.38H28.0049L45.9434 116.73H76.541C77.4643 116.73 78.3352 117.16 78.8994 117.884L79.0088 118.033L114.844 172.207L115.245 172.813L115.668 172.221L154.398 117.971C154.955 117.192 155.864 116.72 156.821 116.72Z" fill="#0763B0" stroke="#D48E00"/>
<path d="M114.041 60.98C142.878 60.9801 167.563 78.914 177.831 104.35H156.041C149.96 104.35 144.219 107.298 140.675 112.239L140.674 112.24L114.966 148.247L91.5078 112.774L91.5068 112.773L91.4463 112.683L91.3867 112.592L91.3838 112.588C87.8604 107.411 82.0156 104.33 75.7607 104.33H75.2607V104.35H50.251C60.5185 78.9044 85.204 60.98 114.041 60.98Z" fill="#FCB119" stroke="#D48E00"/>
<path d="M7.00098 68.02L37.891 86.75" stroke="#FCB119" stroke-width="14" stroke-miterlimit="10" stroke-linecap="round" stroke-linejoin="round"/>
<path d="M52.0312 24.02L69.7112 54.34" stroke="#FCB119" stroke-width="14" stroke-miterlimit="10" stroke-linecap="round" stroke-linejoin="round"/>
<path d="M114.311 7L114.061 42.43" stroke="#FCB119" stroke-width="14" stroke-miterlimit="10" stroke-linecap="round" stroke-linejoin="round"/>
<path d="M174.771 23.8999L157.791 54.1099" stroke="#FCB119" stroke-width="14" stroke-miterlimit="10" stroke-linecap="round" stroke-linejoin="round"/>
<path d="M189.651 86.7099L219.821 68.1099" stroke="#FCB119" stroke-width="14" stroke-miterlimit="10" stroke-linecap="round" stroke-linejoin="round"/>
</svg>
