<svg width="1200" height="630" viewBox="0 0 1200 630" fill="none" xmlns="http://www.w3.org/2000/svg">
  <!-- Background -->
  <rect width="1200" height="630" fill="#005db1"/>
  <rect width="1200" height="630" fill="url(#paint0_radial)" fill-opacity="0.4"/>
  
  <!-- Subtle Pattern/Texture -->
  <path d="M0 315C200 315 200 400 400 400C600 400 600 200 800 200C1000 200 1000 315 1200 315" stroke="white" stroke-opacity="0.05" stroke-width="2"/>
  <path d="M0 415C200 415 200 500 400 500C600 500 600 300 800 300C1000 300 1000 415 1200 415" stroke="white" stroke-opacity="0.03" stroke-width="2"/>
  
  <!-- Centered Logo Group (Scaled and Positioned) -->
  <g transform="translate(410, 148) scale(1.0)">
    <!-- Logo Content from logo-white.svg -->
    <path d="M238.07 116.72H271.222L273.719 222.38H240.429L242.8 154.948L242.856 153.344L241.898 154.632L191.821 221.986L150.808 154.67L150.048 153.423L149.884 154.874L142.233 222.38H109.254L127.192 116.73H157.79C158.713 116.73 159.584 117.16 160.148 117.884L160.258 118.033L196.093 172.207L196.494 172.813L196.917 172.221L235.647 117.971C236.204 117.192 237.113 116.72 238.07 116.72Z" fill="white"/>
    <path d="M195.29 60.98C224.127 60.9801 248.813 78.914 259.08 104.35H237.29C231.209 104.35 225.468 107.298 221.924 112.239L221.923 112.24L196.215 148.247L172.757 112.774L172.756 112.773L172.695 112.683L172.636 112.592L172.633 112.588C169.109 107.411 163.265 104.33 157.01 104.33H156.51V104.35H131.5C141.768 78.9044 166.453 60.98 195.29 60.98Z" fill="white"/>
    <path d="M88.25 68.02L119.14 86.75" stroke="#FCB417" stroke-width="14" stroke-miterlimit="10" stroke-linecap="round" stroke-linejoin="round"/>
    <path d="M133.28 24.02L150.96 54.34" stroke="#FCB417" stroke-width="14" stroke-miterlimit="10" stroke-linecap="round" stroke-linejoin="round"/>
    <path d="M195.56 7L195.31 42.43" stroke="#FCB417" stroke-width="14" stroke-miterlimit="10" stroke-linecap="round" stroke-linejoin="round"/>
    <path d="M256.02 23.8999L239.04 54.1099" stroke="#FCB417" stroke-width="14" stroke-miterlimit="10" stroke-linecap="round" stroke-linejoin="round"/>
    <path d="M270.9 86.7099L301.07 68.1099" stroke="#FCB417" stroke-width="14" stroke-miterlimit="10" stroke-linecap="round" stroke-linejoin="round"/>
    <!-- Text "MOMENTUM" -->
    <path d="M15.9844 260.44L22.9922 278.927L23.4463 280.125L23.9238 278.936L31.3477 260.44H39.7188L44.8496 294.67H36.7305L34.1963 274.817L33.96 272.967L33.2393 274.687L24.8574 294.67H21.8887L13.8838 274.694L13.1963 272.978L12.9258 274.806L9.97852 294.67H1.92188L7.72266 260.44H15.9844Z" fill="white"/>
    <path d="M78.3003 259.65C83.4209 259.65 88.3605 261.413 91.8442 264.742L91.8462 264.744C95.4845 268.178 97.2397 273.001 97.2397 277.59C97.2396 282.106 95.487 286.881 91.8442 290.378C88.3606 293.707 83.4209 295.47 78.3003 295.47C73.3396 295.47 68.5483 293.815 65.0864 290.686L64.7554 290.378C61.113 286.891 59.36 282.116 59.3599 277.59C59.3599 273.011 61.1152 268.178 64.7534 264.744L64.7554 264.742C68.2392 261.413 73.1795 259.65 78.3003 259.65ZM78.3003 267.52C75.654 267.52 72.8301 268.455 70.8208 270.461C68.81 272.419 67.8697 275.146 67.8696 277.74C67.8696 281.032 69.4351 283.315 70.8228 284.65C72.6011 286.375 75.1043 287.59 78.3003 287.59C81.5505 287.59 83.9986 286.429 85.7339 284.694C87.4554 282.972 88.73 280.419 88.73 277.58C88.7299 274.684 87.4574 272.127 85.7271 270.459L85.7231 270.457L85.3286 270.103C83.3136 268.393 80.6899 267.52 78.3003 267.52Z" fill="white"/>
    <path d="M125.125 260.44L132.132 278.927L132.586 280.125L133.064 278.936L140.488 260.44H148.859L153.99 294.67H145.871L143.336 274.817L143.1 272.966L142.379 274.687L134.008 294.67H131.039L123.024 274.694L122.336 272.98L122.066 274.806L119.119 294.67H111.062L116.863 260.44H125.125Z" fill="white"/>
    <path d="M189.1 260.44V267.21H178.22V274.07H188.521V280.84H178.22V287.91H189.1V294.68H170.08V260.44H189.1Z" fill="white"/>
    <path d="M213.497 260.44L230.196 281.798L231.09 282.941V260.44H239.23V294.67H230.834L214.134 273.312L213.24 272.168V294.67H205.1V260.44H213.497Z" fill="white"/>
    <path d="M276.63 260.44V267.21H269.13V294.68H260.99V267.21H253.49V260.44H276.63Z" fill="white"/>
    <path d="M299.03 260.44V280.81C299.03 282.283 299.067 284.759 300.983 286.61L300.987 286.614C302.141 287.702 303.954 288.44 305.66 288.44C307.354 288.44 309.116 287.771 310.215 286.782L310.214 286.781C312.514 284.76 312.44 281.93 312.44 280.02V260.44H320.58V280.17C320.58 283.843 320.418 287.517 316.764 291.229C313.916 294.125 310.355 295.46 305.5 295.46C300.071 295.46 296.245 293.599 294.197 291.39H294.196C291.278 288.213 290.9 283.901 290.9 280.16V260.44H299.03Z" fill="white"/>
    <path d="M350.734 260.44L357.742 278.927L358.196 280.125L358.674 278.936L366.098 260.44H374.469L379.6 294.67H371.48L368.946 274.817L368.71 272.966L367.989 274.687L359.618 294.67H356.648L348.634 274.694L347.946 272.98L347.676 274.806L344.729 294.67H336.672L342.473 260.44H350.734Z" fill="white"/>
  </g>
  
  <defs>
    <radialGradient id="paint0_radial" cx="0" cy="0" r="1" gradientUnits="userSpaceOnUse" gradientTransform="translate(600 315) rotate(90) scale(315 600)">
      <stop stop-color="#0070D6" stop-opacity="0.3"/>
      <stop offset="1" stop-color="#005DB1" stop-opacity="0"/>
    </radialGradient>
  </defs>
</svg>
